<?xml version="1.0" encoding="UTF-8" standalone="no"?>
<svg width="22px" height="16px" viewBox="0 0 22 16" version="1.1" xmlns="http://www.w3.org/2000/svg" xmlns:xlink="http://www.w3.org/1999/xlink" xmlns:sketch="http://www.bohemiancoding.com/sketch/ns">
    <!-- Generator: Sketch 3.2.2 (9983) - http://www.bohemiancoding.com/sketch -->
    <title>list2</title>
    <desc>Created with Sketch.</desc>
    <defs></defs>
    <g id="Page-1" stroke="none" stroke-width="1" fill="none" fill-rule="evenodd" sketch:type="MSPage">
        <g id="Desktop" sketch:type="MSArtboardGroup" transform="translate(-684.000000, -573.000000)">
            <g id="list2" sketch:type="MSLayerGroup" transform="translate(680.000000, 566.000000)">
                <rect id="Rectangle-path" sketch:type="MSShapeGroup" x="0" y="0" width="30" height="30"></rect>
                <path d="M24.228,13.725 L6.405,13.725 C5.5845,13.725 4.92,14.3895 4.92,15.21 C4.92,16.0305 5.5845,16.695 6.405,16.695 L24.228,16.695 C25.0485,16.695 25.7115,16.0305 25.7115,15.21 C25.7115,14.3895 25.0485,13.725 24.228,13.725 L24.228,13.725 Z M6.4065,10.755 L24.2295,10.755 C25.05,10.755 25.713,10.0905 25.713,9.27 C25.713,8.4495 25.05,7.785 24.2295,7.785 L6.4065,7.785 C5.586,7.785 4.9215,8.4495 4.9215,9.27 C4.9215,10.0905 5.586,10.755 6.4065,10.755 L6.4065,10.755 Z M24.228,19.665 L6.405,19.665 C5.5845,19.665 4.92,20.3295 4.92,21.15 C4.92,21.9705 5.5845,22.635 6.405,22.635 L24.228,22.635 C25.0485,22.635 25.7115,21.9705 25.7115,21.15 C25.7115,20.3295 25.0485,19.665 24.228,19.665 L24.228,19.665 Z" id="Shape" fill="#000000" sketch:type="MSShapeGroup"></path>
            </g>
        </g>
    </g>
</svg>