<?xml version="1.0" encoding="UTF-8" standalone="no"?>
<svg width="22px" height="16px" viewBox="0 0 22 16" version="1.1" xmlns="http://www.w3.org/2000/svg" xmlns:xlink="http://www.w3.org/1999/xlink" xmlns:sketch="http://www.bohemiancoding.com/sketch/ns">
    <!-- Generator: Sketch 3.2.2 (9983) - http://www.bohemiancoding.com/sketch -->
    <title>Rectangle 2 + burger</title>
    <desc>Created with Sketch.</desc>
    <defs></defs>
    <g id="Page-1" stroke="none" stroke-width="1" fill="none" fill-rule="evenodd" sketch:type="MSPage">
        <g id="Rectangle-2-+-burger" sketch:type="MSLayerGroup" transform="translate(-4.000000, -8.000000)">
            <rect id="Rectangle-2" sketch:type="MSShapeGroup" x="0" y="0" width="31" height="31"></rect>
            <g id="burger" transform="translate(0.000000, 1.000000)" sketch:type="MSShapeGroup">
                <g id="Page-1">
                    <g id="Desktop">
                        <g id="list2">
                            <rect id="Rectangle-path" x="0" y="0" width="30" height="30"></rect>
                            <path d="M23.9115,13.515 L6.0885,13.515 C5.268,13.515 4.6035,14.1795 4.6035,15 C4.6035,15.8205 5.268,16.485 6.0885,16.485 L23.9115,16.485 C24.732,16.485 25.395,15.8205 25.395,15 C25.395,14.1795 24.732,13.515 23.9115,13.515 L23.9115,13.515 L23.9115,13.515 Z M6.09,10.545 L23.913,10.545 C24.7335,10.545 25.3965,9.8805 25.3965,9.06 C25.3965,8.2395 24.7335,7.575 23.913,7.575 L6.09,7.575 C5.2695,7.575 4.605,8.2395 4.605,9.06 C4.605,9.8805 5.2695,10.545 6.09,10.545 L6.09,10.545 L6.09,10.545 Z M23.9115,19.455 L6.0885,19.455 C5.268,19.455 4.6035,20.1195 4.6035,20.94 C4.6035,21.7605 5.268,22.425 6.0885,22.425 L23.9115,22.425 C24.732,22.425 25.395,21.7605 25.395,20.94 C25.395,20.1195 24.732,19.455 23.9115,19.455 L23.9115,19.455 L23.9115,19.455 Z" id="Shape" fill="#000000"></path>
                        </g>
                    </g>
                </g>
            </g>
        </g>
    </g>
</svg>